HIERARCHY
ROOT Hips
{
  OFFSET -2.26925 106.645 -9.91135
  CHANNELS 6 Xposition Yposition Zposition Zrotation Xrotation Yrotation
  JOINT ToSpine
  {
    OFFSET -2.69724 7.43032 -0.144315
    CHANNELS 3 Zrotation Xrotation Yrotation
    JOINT Spine
    {
      OFFSET -0.0310711 10.7595 1.96963
      CHANNELS 3 Zrotation Xrotation Yrotation
      JOINT Spine1
      {
        OFFSET 19.9056 3.91189 0.764692
        CHANNELS 3 Zrotation Xrotation Yrotation
        JOINT Neck
        {
          OFFSET 25.9749 7.03908 -0.130764
          CHANNELS 3 Zrotation Xrotation Yrotation
          JOINT Head
          {
            OFFSET 9.52751 0.295786 -0.907742
            CHANNELS 3 Zrotation Xrotation Yrotation
            End Site
            {
              OFFSET 16.4037 0.713936 2.7358
            }
          }
        }
        JOINT LeftShoulder
        {
          OFFSET 17.7449 4.33886 11.7777
          CHANNELS 3 Zrotation Xrotation Yrotation
          JOINT LeftArm
          {
            OFFSET 0.911315 1.27913 9.80584
            CHANNELS 3 Zrotation Xrotation Yrotation
            JOINT LeftForeArm
            {
              OFFSET 28.6126 1.18197 -3.53199
              CHANNELS 3 Zrotation Xrotation Yrotation
              JOINT LeftHand
              {
                OFFSET 27.5088 0.0218783 0.327423
                CHANNELS 3 Zrotation Xrotation Yrotation
                End Site
                {
                  OFFSET 18.6038 -0.000155887 0.382096
                }
              }
            }
          }
        }
        JOINT RightShoulder
        {
          OFFSET 17.1009 2.89543 -12.2328
          CHANNELS 3 Zrotation Xrotation Yrotation
          JOINT RightArm
          {
            OFFSET 1.4228 0.178766 -10.211
            CHANNELS 3 Zrotation Xrotation Yrotation
            JOINT RightForeArm
            {
              OFFSET 28.733 1.87905 2.64907
              CHANNELS 3 Zrotation Xrotation Yrotation
              JOINT RightHand
              {
                OFFSET 27.4588 0.290562 -0.101845
                CHANNELS 3 Zrotation Xrotation Yrotation
                End Site
                {
                  OFFSET 17.8396 -0.255518 -0.000602873
                }
              }
            }
          }
        }
      }
    }
  }
  JOINT LeftUpLeg
  {
    OFFSET -5.61296 -2.22332 -10.2353
    CHANNELS 3 Zrotation Xrotation Yrotation
    JOINT LeftLeg
    {
      OFFSET 2.56703 -44.7417 -7.93097
      CHANNELS 3 Zrotation Xrotation Yrotation
      JOINT LeftFoot
      {
        OFFSET 3.16933 -46.5642 -3.96578
        CHANNELS 3 Zrotation Xrotation Yrotation
        JOINT LeftToeBase
        {
          OFFSET 0.346054 -6.02161 12.8035
          CHANNELS 3 Zrotation Xrotation Yrotation
          End Site
          {
            OFFSET 0.134235 -1.35082 5.13018
          }
        }
      }
    }
  }
  JOINT RightUpLeg
  {
    OFFSET -5.7928 -1.72406 10.6446
    CHANNELS 3 Zrotation Xrotation Yrotation
    JOINT RightLeg
    {
      OFFSET -2.57161 -44.7178 -7.85259
      CHANNELS 3 Zrotation Xrotation Yrotation
      JOINT RightFoot
      {
        OFFSET -3.10148 -46.5936 -4.03391
        CHANNELS 3 Zrotation Xrotation Yrotation
        JOINT RightToeBase
        {
          OFFSET -0.0828122 -6.13587 12.8035
          CHANNELS 3 Zrotation Xrotation Yrotation
          End Site
          {
            OFFSET -0.131328 -1.35082 5.13018
          }
        }
      }
    }
  }
}
MOTION
Frames:	17
Frame Time:	0.0333333
-2.27084 106.596 -9.52233 13.7287 -72.7599 -75.4246 -70.1915 0 88.8779 63.7726 69.6538 21.2388 7.02786 19.3927 5.61843 -136.567 21.3951 173.841 -163.21 60.68 177.644 2.51876 -3.23435 -34.547 -104.928 49.4383 -90.7843 -15.0463 44.1518 10.4535 8.99882 -0.510988 -4.65064 0.342432 -1.08231 46.2278 -83.8172 -35.025 91.1771 -6.23039 -9.10182 10.0989 13.5784 -0.41481 -4.01745 -58.9909 -0.104347 96.4073 2.22461 17.6609 -1.50399 3.43533 -3.7605 -0.685714 -0.523282 -0.605964 2.24781 -61.2303 3.59388 81.9986 -1.03102 16.5036 -1.44468 -6.07311 -3.25405 0.967075 -0.160661 -1.50606 -0.97121 
-2.23905 106.597 -9.58889 13.6392 -72.8408 -75.595 -70.1915 0 88.8779 63.6642 69.5916 21.3524 7.10966 19.366 5.56237 -134.012 21.415 174.042 -163.855 60.6825 176.745 2.55621 -3.0344 -34.4376 -105.024 49.6706 -90.7571 -15.0436 44.3644 10.492 9.11501 -0.521841 -4.70303 0.334408 -1.05623 46.3122 -82.7651 -34.8674 91.7777 -6.23528 -8.08773 10.4641 13.5225 -0.429323 -4.16173 -59.0443 -0.293944 96.2701 2.33651 17.6389 -1.29233 3.39674 -3.72646 -0.680865 -0.523757 -0.609297 2.24687 -61.1539 3.46315 81.9358 -1.02717 16.7229 -1.30382 -6.06087 -3.31243 0.967017 -0.160935 -1.50776 -0.97159 
-2.27965 106.584 -9.62106 13.9888 -72.9504 -75.0371 -70.1915 0 88.8779 63.6201 69.4818 21.4748 7.29724 19.2707 5.48564 -130.838 21.2591 173.838 -164.435 60.5976 176.058 2.57252 -2.89558 -34.2173 -104.582 49.8211 -91.1871 -15.1623 44.1025 10.4443 9.25167 -0.527344 -4.67661 0.343454 -1.08508 46.2691 -82.8252 -34.9084 91.9723 -6.36005 -8.34147 10.2214 13.5222 -0.363945 -3.58389 -58.9665 -0.0374284 96.3779 2.39533 17.9834 -1.60229 3.35969 -3.86254 -0.683461 -0.52423 -0.612632 2.24592 -61.3972 3.7165 82.0044 -0.991046 16.4888 -1.54995 -6.10196 -3.20705 0.968918 -0.161209 -1.50946 -0.97197 
-2.26684 106.601 -9.69228 14.0957 -72.8402 -75.1992 -70.1915 0 88.8779 62.2813 69.4145 22.4572 7.39294 19.3508 5.6984 -127.067 21.2448 173.608 -164.546 60.6303 175.057 2.55731 -3.06147 -34.5483 -104.551 49.5017 -91.3259 -15.1755 44.2503 10.4709 9.38876 -0.548988 -4.8399 0.354109 -1.11991 46.1554 -82.6255 -34.9689 92.0266 -6.3085 -7.7987 10.4535 13.3449 -0.390172 -3.86429 -59.0566 -0.387554 96.2172 2.3389 17.5282 -1.34566 3.39867 -3.59146 -0.675264 -0.524701 -0.615966 2.24497 -61.0605 3.35832 81.8721 -1.00236 16.8673 -1.35316 -6.08408 -3.33431 0.969583 -0.161484 -1.51116 -0.97235 
-2.30844 106.593 -9.70467 14.4898 -72.9859 -74.5396 -70.1915 0 88.8779 62.3225 69.3887 22.6212 7.42259 19.3171 5.71164 -123.087 21.2323 173.476 -165.134 60.7097 174.466 2.52523 -3.19437 -34.5084 -104.599 49.5245 -90.9074 -15.1981 44.2225 10.4658 8.96159 -0.517036 -4.75042 0.349632 -1.10966 45.8235 -83.8926 -35.346 91.3246 -6.28843 -9.16072 9.99465 13.6076 -0.330649 -3.27005 -58.9945 0.0174003 96.4527 2.29985 17.9475 -1.79876 3.41359 -3.77363 -0.684362 -0.52517 -0.619302 2.24402 -61.4535 3.73631 82.0183 -1.02561 16.4354 -1.68501 -6.09587 -3.14923 0.967285 -0.161758 -1.51286 -0.97273 
-2.28024 106.609 -9.78505 14.3869 -72.8823 -74.7424 -70.1915 0 88.8779 61.5619 69.166 23.4565 7.66994 19.3399 5.28922 -119.061 21.0748 172.947 -164.284 60.6131 172.562 2.5296 -3.06047 -34.1118 -104.638 49.7106 -90.9274 -15.1741 44.0955 10.4431 9.13537 -0.556589 -5.1075 0.321261 -1.0158 46.2183 -83.895 -35.0684 91.4064 -6.35782 -9.10934 9.91905 13.7301 -0.330302 -3.23961 -58.9624 -0.198673 96.2932 2.3562 17.6956 -1.59101 3.40151 -3.60064 -0.675911 -0.525637 -0.622637 2.24307 -61.2288 3.5522 81.9368 -0.975759 16.5623 -1.55567 -6.10764 -3.14614 0.968342 -0.162032 -1.51456 -0.97311 
-2.25158 106.618 -9.85075 13.806 -72.7764 -75.4816 -70.1915 0 88.8779 60.4824 68.9672 24.4875 7.96153 19.3666 5.15627 -115.392 21.0025 173.1 -164.373 60.497 171.385 2.57044 -2.88467 -34.1491 -104.921 49.612 -90.651 -15.1057 44.3409 10.4877 8.82918 -0.544297 -5.1834 0.325419 -1.02829 46.2826 -82.773 -34.8977 92.1615 -6.45878 -8.16078 10.16 13.8425 -0.379081 -3.63568 -58.9278 -0.416132 96.1523 2.34777 17.4309 -1.22575 3.41071 -3.44547 -0.670117 -0.526102 -0.625973 2.24212 -60.9059 3.3913 81.9399 -1.03283 16.7909 -1.33733 -6.07183 -3.17968 0.965576 -0.162306 -1.51626 -0.97349 
-2.25885 106.6 -9.90328 13.7147 -73.1 -75.2611 -70.1915 0 88.8779 61.8963 69.199 23.4779 7.90868 19.3847 5.02305 -111.956 20.8879 173.447 -165.454 60.4032 171.67 2.58255 -2.82562 -34.1369 -104.83 49.6446 -90.8314 -15.1889 44.5425 10.5243 8.8492 -0.552246 -5.26697 0.37609 -1.19097 46.0306 -83.0322 -35.1288 92.141 -6.3585 -8.67995 10.1501 14.0695 -0.336517 -3.21901 -58.93 0.048686 96.4346 2.35363 17.9985 -1.57801 3.41474 -3.70871 -0.681697 -0.526566 -0.62931 2.24117 -61.3687 3.84296 82.1375 -1.07986 16.4374 -1.56539 -6.06414 -2.9948 0.961409 -0.162581 -1.51797 -0.97387 
-2.26906 106.612 -9.9463 14.112 -73.0211 -74.8837 -70.1915 0 88.8779 60.9584 68.9819 24.2969 8.63983 19.3048 5.00706 -109.405 20.9308 174.019 -166.259 60.3091 171.464 2.65054 -2.61257 -34.4519 -104.922 49.4305 -90.9694 -15.1075 44.609 10.5368 8.79073 -0.537186 -5.12372 0.395041 -1.25096 46.0284 -82.7318 -35.0359 92.6143 -6.25755 -8.49187 10.371 14.1074 -0.326536 -3.12651 -58.8831 -0.0174094 96.3822 2.36463 17.9071 -1.6485 3.41653 -3.61687 -0.677943 -0.527027 -0.632646 2.24022 -61.3269 3.83458 82.1578 -1.11879 16.378 -1.69157 -6.043 -2.95061 0.95855 -0.162855 -1.51967 -0.97425 
-2.23197 106.618 -10.0144 14.4811 -73.0074 -74.5352 -70.1915 0 88.8779 61.4825 68.9822 23.6976 8.63232 19.197 5.07191 -107.085 21.1327 174.245 -165.436 60.2971 170.144 2.70718 -2.38924 -34.5548 -105.131 49.3986 -90.8466 -15.092 44.8878 10.5887 8.83772 -0.543967 -5.17286 0.369556 -1.17096 45.9808 -81.7941 -34.979 93.0715 -6.2596 -7.76437 10.6647 14.2688 -0.366268 -3.42541 -58.8738 -0.130169 96.2953 2.40483 17.8502 -1.65399 3.43053 -3.53942 -0.675902 -0.527487 -0.635983 2.23927 -61.2956 3.77975 82.1465 -1.1432 16.4022 -1.75957 -6.00323 -2.93044 0.954334 -0.163129 -1.52137 -0.974631 
-2.19897 106.621 -10.1209 14.0183 -73.0273 -75.0098 -70.1915 0 88.8779 62.2016 69.2338 23.0664 8.56489 19.2882 5.21008 -105.898 21.5253 174.964 -166.295 60.474 170.366 2.75988 -2.31597 -35.0684 -104.997 49.0688 -91.0376 -15.0844 44.7177 10.5572 8.79888 -0.54124 -5.14603 0.38263 -1.21665 45.6968 -81.9172 -35.0741 93.0178 -6.17128 -8.48759 10.5676 14.0218 -0.292947 -2.85847 -58.8094 -0.134248 96.2954 2.38167 17.8536 -1.50867 3.46093 -3.49257 -0.676657 -0.527946 -0.639321 2.23831 -61.1563 3.77041 82.1834 -1.1596 16.4987 -1.65222 -5.98777 -2.89005 0.952064 -0.163404 -1.52307 -0.975011 
-2.13489 106.641 -10.173 14.9296 -73.0119 -74.1785 -70.1915 0 88.8779 62.7201 69.2121 22.4818 8.67303 19.2237 5.03931 -104.579 21.5949 174.926 -165.136 60.3902 169.127 2.76057 -2.29878 -35.0233 -104.921 48.9938 -91.0714 -15.0456 44.5487 10.5262 8.96844 -0.535037 -4.96629 0.347486 -1.10014 46.0578 -81.5698 -34.8172 92.9504 -6.13369 -7.82964 10.8232 14.0736 -0.336453 -3.2176 -58.958 -0.451613 96.0692 2.52351 17.5538 -1.50507 3.44399 -3.29686 -0.666846 -0.528403 -0.642658 2.23736 -61.215 3.48948 81.9592 -1.02674 16.4896 -1.64053 -6.00398 -2.88009 0.953443 -0.163678 -1.52477 -0.975391 
-2.11153 106.642 -10.2222 15.1414 -72.9194 -73.9748 -70.1915 0 88.8779 62.8362 69.2537 22.3303 8.89483 19.2447 5.01061 -103.987 21.7714 175.021 -164.63 60.4441 168.554 2.7776 -2.16343 -34.8351 -105.117 49.2682 -91.0837 -15.0633 45.0439 10.6184 8.92862 -0.533071 -4.97093 0.345167 -1.09616 45.7612 -81.6101 -35.1547 93.0015 -6.16577 -7.9206 10.7564 14.5757 -0.397099 -3.6092 -58.8312 -0.511373 95.9991 2.52217 17.5779 -1.5039 3.46779 -3.26558 -0.667717 -0.528859 -0.645996 2.23641 -61.1017 3.44071 81.9453 -1.02088 16.516 -1.69802 -5.98903 -2.86589 0.951721 -0.163952 -1.52647 -0.975771 
-2.11391 106.659 -10.2798 14.974 -72.8205 -74.1824 -70.1915 0 88.8779 63.196 69.3955 22.0247 8.66774 19.3472 4.99146 -102.975 21.785 175.255 -165.024 60.398 168.872 2.7615 -2.31208 -35.0788 -105.341 48.9045 -90.8128 -15.0202 45.1664 10.6418 8.43123 -0.519392 -5.17369 0.331418 -1.05139 45.8507 -81.9037 -35.0642 92.6167 -6.32105 -8.12057 10.4742 14.0135 -0.325554 -3.13771 -58.7844 -0.583456 95.9351 2.5208 17.3811 -1.40394 3.46723 -3.12836 -0.661888 -0.529314 -0.649335 2.23546 -60.9909 3.40576 81.9521 -1.02796 16.4303 -1.65164 -5.99247 -2.77423 0.950293 -0.164227 -1.52817 -0.976151 
-2.0777 106.661 -10.3145 14.8739 -72.7281 -74.3577 -70.1915 0 88.8779 62.9226 69.4247 22.4368 8.88731 19.4884 4.73484 -102.224 21.7728 175.264 -164.769 60.3365 168.589 2.72598 -2.46637 -35.0717 -105.52 48.8448 -90.6651 -14.9739 45.2441 10.6569 8.28849 -0.5166 -5.25115 0.325339 -1.03199 45.8577 -82.2057 -35.1669 92.4265 -6.39626 -8.23838 10.3247 13.7991 -0.371339 -3.57955 -58.7141 -0.762722 95.7857 2.57935 17.2852 -1.21068 3.45688 -3.06081 -0.658072 -0.529767 -0.652673 2.23451 -60.8004 3.26111 81.8956 -0.998829 16.5677 -1.5546 -5.98661 -2.80658 0.950343 -0.164501 -1.52987 -0.976532 
-2.04541 106.671 -10.3399 15.2115 -72.6456 -73.9973 -70.1915 0 88.8779 62.8983 69.4415 22.5262 9.09897 19.5301 4.62454 -101.464 21.6857 175.107 -164.453 60.2732 168.332 2.70924 -2.51744 -34.9971 -105.449 48.907 -90.7378 -14.9729 45.1304 10.6354 7.98259 -0.480096 -5.00757 0.30776 -0.974823 46.0202 -81.816 -35.0777 92.4375 -6.38254 -8.08353 10.415 13.7293 -0.431488 -4.12007 -58.6686 -0.803428 95.7463 2.58867 17.2078 -1.29347 3.48135 -2.99087 -0.657438 -0.530219 -0.656012 2.23355 -60.8009 3.25889 81.9073 -1.00687 16.4439 -1.67175 -5.95711 -2.73956 0.946156 -0.164775 -1.53157 -0.976912 
-2.03978 106.685 -10.3927 15.081 -72.606 -74.1627 -70.1915 0 88.8779 63.0294 69.4087 22.4849 9.33502 19.5329 4.35729 -100.824 21.6853 175.27 -164.157 60.1466 168.21 2.73435 -2.36513 -34.8645 -105.423 48.9458 -90.7532 -14.9935 45.2918 10.6662 7.88333 -0.475656 -5.02737 0.278197 -0.880664 46.1416 -81.3589 -35.0479 92.7147 -6.41166 -7.76048 10.5244 13.8419 -0.42221 -4.00777 -58.6782 -0.764544 95.8414 2.45725 17.0379 -1.32662 3.55639 -2.87238 -0.659643 -0.530671 -0.659351 2.2326 -60.7019 3.24302 81.9481 -1.0412 16.464 -1.65956 -5.93902 -2.70647 0.94373 -0.16505 -1.53327 -0.977293 
